<?xml version="1.0" standalone="no"?><!DOCTYPE svg PUBLIC "-//W3C//DTD SVG 1.1//EN" "http://www.w3.org/Graphics/SVG/1.1/DTD/svg11.dtd"><svg t="1760153313155" class="icon" viewBox="0 0 1024 1024" version="1.1" xmlns="http://www.w3.org/2000/svg" p-id="1570" xmlns:xlink="http://www.w3.org/1999/xlink" width="200" height="200"><path d="M872.34752 158.08h-160l86.72-89.92a40.96 40.96 0 0 0 0-56 37.76 37.76 0 0 0-54.72 0l-142.08 145.92h-180.16L280.98752 11.84a37.76 37.76 0 0 0-54.72 0 40.64 40.64 0 0 0 0 56.32l86.72 89.92h-160A154.56 154.56 0 0 0 0.02752 315.52v551.04A154.56 154.56 0 0 0 151.70752 1024h720.64A154.56 154.56 0 0 0 1024.02752 866.56V315.52a154.56 154.56 0 0 0-151.68-157.44z m-672 547.52H131.22752v-281.6h68.16z m235.2-142.4a78.4 78.4 0 0 1-24.96 32 110.72 110.72 0 0 1-19.84 11.52 136.64 136.64 0 0 1-25.28 8 281.6 281.6 0 0 1-48.96 4.48h-18.24v85.76H230.10752v-281.6h107.52a187.2 187.2 0 0 1 39.68 5.12 96 96 0 0 1 37.12 20.8 90.24 90.24 0 0 1 21.12 32 112.96 112.96 0 0 1 6.72 38.4 120.96 120.96 0 0 1-7.68 43.52z m224-82.56H588.82752v224h-68.16V480h-68.8v-55.68h205.12z m181.12 224h-106.88l-74.88-281.6h73.92l52.8 222.08 52.48-222.08h74.24z" fill="#FFAE36" p-id="1571"></path><path d="M349.14752 484.16a57.6 57.6 0 0 0-17.92-3.52h-32v82.56h29.12a74.56 74.56 0 0 0 18.88-2.56 52.48 52.48 0 0 0 15.36-8.64 39.04 39.04 0 0 0 12.48-29.44 42.24 42.24 0 0 0-10.88-29.12 41.6 41.6 0 0 0-15.04-9.28z" fill="#FFAE36" p-id="1572"></path></svg>